<!-- icon666.com - MILLIONS vector ICONS FREE --><svg viewBox="0 -29 512 512" xmlns="http://www.w3.org/2000/svg"><path d="m457.582031 175.820312h-127.265625v6.105469c0 24.527344-19.882812 44.417969-44.417968 44.417969h-104.214844v121.402344c0 24.53125 19.882812 44.417968 44.417968 44.417968h134.171876c5.925781 0 11.613281 2.3125 15.855468 6.449219l44.613282 43.484375c5.601562 5.457032 15.015624 1.488282 15.015624-6.335937v-37.484375c0-3.375 2.738282-6.113282 6.113282-6.113282h15.710937c24.53125 0 44.417969-19.886718 44.417969-44.417968v-127.507813c0-24.527343-19.886719-44.417969-44.417969-44.417969zm0 0" fill="#56caf4"></path><path d="m330.316406 181.925781v-127.507812c0-24.53125-19.882812-44.417969-44.417968-44.417969h-231.480469c-24.53125 0-44.417969 19.886719-44.417969 44.417969v127.507812c0 24.527344 19.886719 44.417969 44.417969 44.417969h15.710937c3.378906 0 6.113282 2.734375 6.113282 6.113281v37.484375c0 7.824219 9.414062 11.792969 15.015624 6.332032l44.613282-43.484376c4.242187-4.132812 9.933594-6.445312 15.855468-6.445312h134.175782c24.53125-.003906 44.414062-19.890625 44.414062-44.417969zm0 0" fill="#ffca49"></path><g fill="#231f20"><path d="m92.78125 158.800781c-.25-.601562-.5625-1.179687-.921875-1.71875-.359375-.550781-.78125-1.0625-1.238281-1.519531-.460938-.460938-.972656-.882812-1.519532-1.25-.542968-.363281-1.121093-.660156-1.730468-.910156-.601563-.25-1.230469-.453125-1.871094-.582032-1.289062-.257812-2.609375-.257812-3.898438 0-.640624.128907-1.273437.332032-1.882812.582032-.597656.25-1.179688.546875-1.71875.910156-.550781.367188-1.058594.789062-1.519531 1.25-.460938.457031-.878907.96875-1.25 1.519531-.359375.539063-.660157 1.117188-.910157 1.71875-.25.609375-.449218 1.238281-.570312 1.882813-.128906.636718-.199219 1.296875-.199219 1.949218 0 .648438.070313 1.308594.199219 1.949219.121094.640625.320312 1.269531.570312 1.867188.25.613281.550782 1.191406.917969 1.730469.363281.550781.78125 1.0625 1.242188 1.519531.460937.460937.96875.882812 1.519531 1.242187.539062.359375 1.121094.667969 1.71875.917969.609375.25 1.242188.441406 1.882812.570313.636719.132812 1.296876.199218 1.949219.199218.648438 0 1.308594-.066406 1.949219-.199218.640625-.128907 1.269531-.320313 1.871094-.570313.609375-.25 1.1875-.558594 1.730468-.917969.546876-.359375 1.058594-.78125 1.519532-1.242187.457031-.457031.878906-.96875 1.238281-1.519531.359375-.539063.671875-1.117188.921875-1.730469.25-.597657.449219-1.226563.570312-1.867188.128907-.640625.199219-1.300781.199219-1.949219 0-.652343-.070312-1.3125-.199219-1.949218-.121093-.644532-.320312-1.273438-.570312-1.882813zm0 0"></path><path d="m506.984375 197.429688c-.042969-.105469-.089844-.210938-.140625-.316407-2.320312-4.941406-5.347656-9.425781-8.921875-13.363281-9.855469-10.882812-24.039063-17.773438-39.804687-17.925781-.027344 0-.054688 0-.082032 0-.148437 0-.300781-.003907-.453125-.003907h-117.265625v-111.402343c0-8.144531-1.796875-15.875-5.015625-22.820313-.046875-.101562-.089843-.203125-.140625-.304687-2.3125-4.925781-5.324218-9.398438-8.886718-13.320313-9.851563-10.90625-24.050782-17.816406-39.835938-17.96874975-.027344 0-.054688 0-.082031 0-.152344-.00390625-.304688-.00390625-.457031-.00390625h-231.480469c-.152344 0-.304688 0-.453125.00390625-.027344 0-.054688 0-.082032 0-15.789062.15234375-29.988281 7.06249975-39.84375 17.97265575-.035156.035157-.066406.074219-.101562.113282-.003906 0-.003906.003906-.007812.007812-3.507813 3.894532-6.484376 8.324219-8.773438 13.195313-.046875.101562-.09375.203125-.136719.304687-3.222656 6.945313-5.019531 14.675782-5.019531 22.820313v127.507812c0 30.003907 24.410156 54.414063 54.417969 54.414063h11.824219v33.601562c0 7.59375 4.523437 14.410156 11.523437 17.363282 2.371094 1 4.863281 1.484374 7.332031 1.484374 4.816406 0 9.546875-1.851562 13.140625-5.355468l44.613281-43.484375c2.390626-2.324219 5.539063-3.605469 8.875-3.605469h19.957032v111.402344c0 30.007812 24.410156 54.417968 54.414062 54.417968h134.175782c3.335937 0 6.488281 1.28125 8.875 3.609376l44.613281 43.484374c3.59375 3.503907 8.324219 5.355469 13.140625 5.351563 2.46875 0 4.960937-.484375 7.332031-1.484375 7-2.953125 11.523437-9.765625 11.523437-17.363281v-33.597657h11.824219c30.007813 0 54.417969-24.414062 54.417969-54.417968v-127.507813c0-8.136719-1.796875-15.867187-5.015625-22.808593zm-48.933594-11.605469h.058594c.144531.003906.285156.007812.425781.011719h.007813c9.671875.273437 18.714843 4.660156 24.960937 11.78125.015625.019531.03125.039062.050782.058593.046874.054688.09375.113281.140624.167969.046876.054688.09375.109375.144532.164062l-116.609375 68.984376c-.109375.066406-.21875.128906-.332031.199218l-9.9375 5.878906c-9.328126 5.519532-20.914063 5.515626-30.238282 0l-9.894531-5.851562c-.136719-.085938-.269531-.167969-.410156-.242188l-51.78125-30.636718h21.265625c.214844 0 .433594 0 .652344-.003906h.027343c.207031-.003907.414063-.007813.621094-.011719h.058594c.203125-.007813.402343-.011719.601562-.019531.023438 0 .050781 0 .074219-.003907.195312-.003906.390625-.015625.585938-.023437.03125 0 .058593-.003906.089843-.003906.191407-.011719.382813-.019532.574219-.03125.03125-.003907.0625-.003907.09375-.007813.191406-.011719.386719-.023437.578125-.039063.027344 0 .054687-.003906.082031-.003906.195313-.015625.386719-.03125.582032-.046875.027343 0 .054687-.003906.082031-.007812.195312-.015625.390625-.035157.585937-.050781.023438-.003907.042969-.007813.066406-.007813.199219-.019531.398438-.039063.597657-.0625.015625 0 .03125-.003906.050781-.003906.203125-.023438.410156-.046875.613281-.074219h.011719c.433594-.050781.859375-.109375 1.289062-.171875h.003907c.207031-.03125.414062-.0625.621093-.09375.011719-.003906.023438-.003906.035157-.007813.203125-.03125.402343-.0625.605469-.097656.015624-.003906.027343-.003906.042968-.007812.199219-.035156.402344-.070313.601563-.105469.011719-.003906.023437-.003906.035156-.007813.199219-.035156.394531-.074218.59375-.113281.019531-.003906.039063-.007812.054687-.011719.199219-.039062.394532-.078124.589844-.117187.015625-.003906.027344-.007813.042969-.007813.199219-.042968.398437-.085937.59375-.128906.011719-.003906.027344-.003906.039063-.007812.199218-.042969.398437-.089844.597656-.136719.007812 0 .019531-.003906.027344-.003906.203124-.050781.40625-.097657.609374-.148438h.003907c22.515625-5.546875 39.5625-25.148437 41.261719-48.925781 0-.007812.003906-.011719.003906-.019531h117.402344c.152343-.003907.308593 0 .464843 0zm-137.734375-131.40625v127.503906c0 7.589844-2.46875 14.613281-6.644531 20.308594l-96.644531-90.527344 103.09375-60.988281c.128906 1.214844.195312 2.453125.195312 3.703125zm-34.414062-34.417969c.15625 0 .3125 0 .46875.003906h.058594c.140624.003906.285156.003906.425781.007813h.007812c9.683594.273437 18.734375 4.671875 24.980469 11.8125.003906.003906.007812.011719.011719.015625.066406.070312.128906.144531.191406.21875.035156.042968.074219.085937.109375.128906l-116.625 68.996094c-.097656.054687-.191406.113281-.285156.167968l-9.96875 5.898438c-9.324219 5.519531-20.910156 5.519531-30.238282 0l-9.949218-5.886719c-.105469-.0625-.207032-.125-.3125-.183593l-116.613282-68.992188c.046876-.054688.09375-.109375.140626-.164062.046874-.054688.09375-.113282.144531-.167969.015625-.019531.03125-.039063.050781-.058594 6.246094-7.121094 15.285156-11.511719 24.957031-11.78125h.007813c.140625-.003906.28125-.007813.425781-.011719h.058594c.15625 0 .3125-.003906.46875-.003906zm-157.007813 205.628906-42.652343 41.566406v-34.738281c0-8.886719-7.226563-16.117187-16.113282-16.117187h-15.710937c-4.023438 0-7.886719-.691406-11.480469-1.96875l22.023438-20.628906c4.03125-3.773438 4.238281-10.101563.460937-14.132813-3.773437-4.035156-10.101563-4.238281-14.132813-.460937l-24.644531 23.082031c-4.175781-5.695313-6.644531-12.71875-6.644531-20.304688v-127.507812c0-1.253907.066406-2.488281.199219-3.703125l103.089843 60.988281-19.453124 18.222656c-4.03125 3.777344-4.238282 10.105469-.464844 14.136719 1.96875 2.101562 4.632812 3.164062 7.300781 3.164062 2.449219 0 4.90625-.894531 6.835937-2.703124l23.710938-22.210938 3.636719 2.152344c7.804687 4.617187 16.554687 6.925781 25.304687 6.925781 8.746094 0 17.5-2.3125 25.300782-6.925781l3.636718-2.152344 98.28125 92.0625c-3.589844 1.273438-7.453125 1.96875-11.480468 1.96875h-134.171876c-8.582031-.003906-16.691406 3.296875-22.832031 9.285156zm62.789063 10.710938h33.675781l69.613281 41.1875-96.644531 90.527344c-4.175781-5.699219-6.644531-12.71875-6.644531-20.308594zm250.1875 145.824218c-8.886719 0-16.113282 7.226563-16.113282 16.113282v34.742187l-42.648437-41.570312c-6.144531-5.988281-14.253906-9.285157-22.835937-9.285157h-134.175782c-4.023437 0-7.886718-.695312-11.480468-1.96875l98.28125-92.0625 3.640624 2.152344c7.804688 4.613282 16.550782 6.921875 25.300782 6.921875s17.5-2.308593 25.304687-6.921875l3.636719-2.152344 98.28125 92.058594c-3.59375 1.277344-7.457031 1.96875-11.480469 1.96875h-15.710937zm50.128906-34.417968c0 7.589844-2.46875 14.609375-6.644531 20.308594l-96.644531-90.527344 103.089843-60.992188c.132813 1.21875.199219 2.453125.199219 3.703125zm0 0"></path></g></svg>